<svg width="91" height="39" viewBox="0 0 91 39" fill="none" xmlns="http://www.w3.org/2000/svg">
<path d="M0.958871 16.1642H6.21234C6.21234 16.8752 6.545 17.4292 7.20854 17.8261C7.87296 18.2229 8.65771 18.4214 9.56366 18.4214C10.4095 18.4214 11.1579 18.233 11.8126 17.8564C12.4664 17.4806 12.7938 16.979 12.7938 16.3516C12.7938 16.0181 12.738 15.7204 12.6283 15.4586C12.5169 15.1977 12.3417 14.9883 12.0993 14.8321C11.8577 14.675 11.6419 14.5491 11.4499 14.4554C11.2597 14.3617 10.9677 14.2882 10.5749 14.2359C10.1821 14.1844 9.90516 14.1477 9.74503 14.1265C9.58401 14.1063 9.30178 14.0843 8.89924 14.0631C7.87296 14.0016 6.92277 13.8445 6.04601 13.5937C5.17102 13.3429 4.3562 12.9773 3.60065 12.4968C2.84598 12.0154 2.25233 11.3622 1.82059 10.5373C1.38708 9.71228 1.1712 8.74491 1.1712 7.63698C1.1712 5.35957 1.96568 3.59295 3.55553 2.33895C5.14537 1.08495 7.08821 0.457489 9.38229 0.457489C10.7908 0.457489 12.1046 0.714719 13.3228 1.22642C14.5402 1.73813 15.5453 2.55392 16.3415 3.67103C17.136 4.78907 17.5235 6.11197 17.5031 7.63698H12.3417C12.3213 6.92684 12.04 6.394 11.4959 6.03847C10.9527 5.68294 10.2776 5.50564 9.47342 5.50564C7.55977 5.50564 6.60516 6.17444 6.60516 7.51204C6.60516 8.20196 6.86172 8.68243 7.37398 8.95345C7.88888 9.22537 8.70814 9.42381 9.83438 9.54875C10.8412 9.63327 11.7162 9.7481 12.4611 9.89417C13.2069 10.0402 13.9607 10.2754 14.726 10.5997C15.4913 10.924 16.115 11.3209 16.5972 11.7913C17.0811 12.2607 17.4775 12.8882 17.7907 13.6718C18.1012 14.4554 18.2587 15.3603 18.2587 16.3837C18.2587 18.5573 17.4032 20.2707 15.6921 21.5247C13.9811 22.7787 11.9586 23.4061 9.62382 23.4061C7.20853 23.4061 5.15068 22.7787 3.44936 21.5247C1.74893 20.2707 0.919059 18.4838 0.958871 16.1642Z" fill="#201F1F"/>
<path d="M32.75 10.0819L30.5762 15.38H34.9538L32.75 10.0819ZM36.7056 20.1764H28.7944L27.5877 22.9039H21.8211V22.1203L31.5123 0.740774H34.0479L43.6489 22.1203V22.9039H37.9433L36.7056 20.1764Z" fill="#201F1F"/>
<path d="M58.381 14.1577H54.1556V17.7938H58.4111C59.3772 17.7938 59.9195 17.2297 60.0416 16.1016C60.0814 15.3492 59.831 14.7741 59.286 14.3772C58.964 14.2312 58.6623 14.1577 58.381 14.1577ZM57.5661 5.85096H54.1556V9.51833H57.5661C58.0687 9.51833 58.4615 9.35114 58.7428 9.01674C59.0251 8.68234 59.1755 8.27536 59.1967 7.79397C59.2153 7.27216 59.0799 6.8165 58.7888 6.42973C58.4969 6.04389 58.089 5.85096 57.5661 5.85096ZM64.6306 7.60564C64.6306 8.29557 64.4687 8.99009 64.1476 9.69105C63.8247 10.3911 63.4018 10.9607 62.8789 11.3989C63.7256 11.838 64.3741 12.4756 64.8262 13.3116C65.28 14.1476 65.5065 15.0773 65.5065 16.1016C65.5065 18.0446 64.9173 19.644 63.7406 20.8971C62.5622 22.152 60.9166 22.7786 58.8039 22.7786H48.6305V0.866199H57.9581C59.9301 0.866199 61.535 1.48263 62.7745 2.7155C64.0113 3.94929 64.6306 5.57903 64.6306 7.60564" fill="#201F1F"/>
<path d="M80.0584 10.0819L77.8846 15.38H82.2622L80.0584 10.0819ZM84.014 20.1764H76.1028L74.8952 22.9039H69.1286V22.1203L78.8207 0.740774H81.3572L90.9573 22.1203V22.9039H85.2517L84.014 20.1764Z" fill="#201F1F"/>
<path d="M3.36201 33.2486C3.97158 33.2486 4.63689 33.436 5.09341 33.8825L4.91381 34.1121C4.51834 33.7456 3.91584 33.5435 3.36909 33.5435C2.13579 33.5435 1.26965 34.5154 1.26965 35.8172C1.26965 37.1272 2.12871 38.1635 3.38944 38.1635C3.98485 38.1635 4.59531 37.9246 5.03148 37.4791L5.21815 37.695C4.81649 38.0983 4.23434 38.4575 3.38944 38.4575C1.93407 38.4575 0.95734 37.2779 0.95734 35.8172C0.95734 34.3565 1.9553 33.2486 3.36201 33.2486Z" fill="#201F1F"/>
<path d="M12.4149 38.163C13.6411 38.163 14.5559 37.1414 14.5559 35.8167C14.5559 34.5296 13.6411 33.5439 12.4149 33.5439C11.1887 33.5439 10.2747 34.5296 10.2747 35.8167C10.2747 37.1414 11.1887 38.163 12.4149 38.163ZM12.4149 33.2481C13.8074 33.2481 14.8673 34.3716 14.8673 35.8167C14.8673 37.2995 13.8074 38.457 12.4149 38.457C11.0223 38.457 9.96244 37.2995 9.96244 35.8167C9.96244 34.3716 11.0223 33.2481 12.4149 33.2481Z" fill="#201F1F"/>
<path d="M21.7934 35.853C22.4313 35.853 22.8329 35.378 22.8329 34.6945C22.8329 34.249 22.6179 33.8888 22.2649 33.7244C22.126 33.6592 21.9739 33.6233 21.5855 33.6233H20.4769V35.853H21.7934ZM20.1796 33.3358H21.5996C22.0499 33.3358 22.2782 33.3854 22.4728 33.4865C22.8745 33.695 23.1443 34.1194 23.1443 34.6945C23.1443 35.4148 22.7427 35.954 22.1747 36.0826V36.0983C22.1747 36.0983 22.2233 36.1552 22.2853 36.2774L23.3735 38.3711H23.0196L21.8695 36.1405H20.4769V38.3711H20.1796V33.3358Z" fill="#201F1F"/>
<path d="M30.1257 35.997C30.8317 35.997 31.3032 35.5588 31.3032 34.8027C31.3032 34.0475 30.8317 33.6231 30.1257 33.6231H28.8437V35.997H30.1257ZM28.5456 33.3356H30.1389C30.9847 33.3356 31.6147 33.8895 31.6147 34.8027C31.6147 35.7168 30.9847 36.2854 30.1389 36.2854H28.8437V38.3708H28.5456V33.3356Z" fill="#201F1F"/>
<path d="M38.9077 38.163C40.1339 38.163 41.0487 37.1414 41.0487 35.8167C41.0487 34.5296 40.1339 33.5439 38.9077 33.5439C37.6814 33.5439 36.7666 34.5296 36.7666 35.8167C36.7666 37.1414 37.6814 38.163 38.9077 38.163ZM38.9077 33.2481C40.3002 33.2481 41.3601 34.3716 41.3601 35.8167C41.3601 37.2995 40.3002 38.457 38.9077 38.457C37.5151 38.457 36.4552 37.2995 36.4552 35.8167C36.4552 34.3716 37.5151 33.2481 38.9077 33.2481Z" fill="#201F1F"/>
<path d="M48.287 35.853C48.924 35.853 49.3257 35.378 49.3257 34.6945C49.3257 34.249 49.1107 33.8888 48.7577 33.7244C48.6188 33.6592 48.4666 33.6233 48.0791 33.6233H46.9706V35.853H48.287ZM46.6724 33.3358H48.0924C48.5427 33.3358 48.7719 33.3854 48.9656 33.4865C49.3673 33.695 49.6371 34.1194 49.6371 34.6945C49.6371 35.4148 49.2354 35.954 48.6675 36.0826V36.0983C48.6675 36.0983 48.7161 36.1552 48.7789 36.2774L49.8654 38.3711H49.5133L48.3631 36.1405H46.9706V38.3711H46.6724V33.3358Z" fill="#201F1F"/>
<path d="M57.3805 36.3425L56.6462 34.2993C56.5701 34.0834 56.4666 33.6948 56.4666 33.6948H56.4525C56.4525 33.6948 56.3481 34.0834 56.272 34.2993L55.5306 36.3425H57.3805ZM56.3003 33.3356H56.6197L58.4342 38.3709H58.1148L57.4849 36.63H55.4271L54.8033 38.3709H54.4848L56.3003 33.3356Z" fill="#201F1F"/>
<path d="M64.2855 33.6232H62.4772V33.3356H66.392V33.6232H64.5837V38.3709H64.2855V33.6232Z" fill="#201F1F"/>
<path d="M71.4182 33.3358H71.7164V38.3711H71.4182V33.3358Z" fill="#201F1F"/>
<path d="M79.4787 38.163C80.7058 38.163 81.6197 37.1414 81.6197 35.8167C81.6197 34.5296 80.7058 33.5439 79.4787 33.5439C78.2524 33.5439 77.3385 34.5296 77.3385 35.8167C77.3385 37.1414 78.2524 38.163 79.4787 38.163ZM79.4787 33.2481C80.8712 33.2481 81.932 34.3716 81.932 35.8167C81.932 37.2995 80.8712 38.457 79.4787 38.457C78.087 38.457 77.0271 37.2995 77.0271 35.8167C77.0271 34.3716 78.087 33.2481 79.4787 33.2481Z" fill="#201F1F"/>
<path d="M87.2433 33.3356H87.5202L90.2849 37.285C90.4442 37.5156 90.6795 37.918 90.6795 37.918H90.6937C90.6937 37.918 90.6592 37.5367 90.6592 37.285V33.3356H90.9573V38.3709H90.6795L87.9165 34.4215C87.7564 34.1918 87.5202 33.7895 87.5202 33.7895H87.5069C87.5069 33.7895 87.5414 34.1698 87.5414 34.4215V38.3709H87.2433V33.3356Z" fill="#201F1F"/>
</svg>
