<svg width="159" height="248" viewBox="0 0 159 248" fill="none" xmlns="http://www.w3.org/2000/svg">
<path d="M59.4953 231.75L79.7192 247.689L99.968 231.762L79.7192 220.732L59.4953 231.75Z" fill="#D2B08A"/>
<path d="M119.525 117.871L158.759 111.38V89.031L97.2335 99.2068V144.034L79.7199 154.404L62.2047 144.034V99.2068L0.75946 89.0449V111.393L39.9135 117.871V156.533L79.6453 180.055L28.9154 207.696L47.8192 222.564L79.7199 205.185L111.644 222.578L130.548 207.708L79.7944 180.055L119.525 156.533V117.871Z" fill="#D2B08A"/>
<path d="M0.762061 26.9535H9.98482C9.98482 28.1425 10.5673 29.0688 11.7337 29.7324C12.9001 30.3961 14.2778 30.7279 15.8667 30.7279C17.3531 30.7279 18.6671 30.413 19.8164 29.7831C20.9642 29.1548 21.5389 28.3161 21.5389 27.2668C21.5389 26.7092 21.4411 26.2115 21.2485 25.7737C21.0528 25.3374 20.7452 24.9871 20.3197 24.726C19.8956 24.4633 19.5167 24.2528 19.1796 24.0961C18.8457 23.9395 18.3331 23.8166 17.6435 23.729C16.9539 23.643 16.4678 23.5815 16.1867 23.5462C15.9024 23.5124 15.4085 23.4755 14.7018 23.4402C12.9001 23.3373 11.232 23.0746 9.69283 22.6552C8.15673 22.2358 6.72626 21.6244 5.39985 20.821C4.07499 20.016 3.03281 18.9238 2.27485 17.5443C1.5138 16.1648 1.13482 14.5472 1.13482 12.6946C1.13482 8.88634 2.52958 5.93225 5.32063 3.83535C8.11169 1.73845 11.5225 0.689236 15.5499 0.689236C18.0225 0.689236 20.3274 1.11937 22.4677 1.97503C24.6049 2.83068 26.3693 4.19482 27.7671 6.06282C29.1603 7.93237 29.8422 10.1445 29.8065 12.6946H20.7452C20.7095 11.5071 20.214 10.6161 19.2588 10.0216C18.3052 9.42708 17.1217 9.13059 15.7098 9.13059C12.3503 9.13059 10.6744 10.2489 10.6744 12.4856C10.6744 13.6393 11.1249 14.4427 12.0241 14.8959C12.9281 15.3506 14.3663 15.6824 16.3435 15.8914C18.111 16.0327 19.6471 16.2247 20.9549 16.469C22.2642 16.7132 23.5875 17.1065 24.931 17.6488C26.2745 18.191 27.3695 18.8547 28.216 19.6412C29.0656 20.4262 29.7614 21.4754 30.3112 22.7858C30.8564 24.0961 31.1313 25.6093 31.1313 27.3206C31.1313 30.9552 29.631 33.8202 26.6271 35.9171C23.6233 38.014 20.0727 39.0632 15.9739 39.0632C11.7337 39.0632 8.12101 38.014 5.13425 35.9171C2.14749 33.8202 0.692168 30.8323 0.762061 26.9535Z" fill="#201F1F"/>
<path d="M56.5733 16.7829L52.7572 25.6421H60.4423L56.5733 16.7829ZM63.5176 33.6626H49.6291L47.5105 38.2235H37.3854V36.9131L54.4004 1.16296H58.8518L75.7069 36.9131V38.2235H65.6905L63.5176 33.6626Z" fill="#201F1F"/>
<path d="M101.569 23.5983H94.1512V29.6785H101.622C103.318 29.6785 104.272 28.7353 104.484 26.8488C104.556 25.5907 104.115 24.629 103.158 23.9654C102.593 23.7212 102.063 23.5983 101.569 23.5983ZM100.139 9.70804H94.1512V15.8405H100.139C101.021 15.8405 101.711 15.5609 102.206 15.0017C102.7 14.4426 102.965 13.762 103.001 12.9571C103.034 12.0845 102.798 11.3226 102.285 10.6758C101.773 10.0306 101.057 9.70804 100.139 9.70804V9.70804ZM112.541 12.6422C112.541 13.7958 112.258 14.9572 111.693 16.1293C111.127 17.2999 110.383 18.2523 109.466 18.9851C110.952 19.7194 112.09 20.7855 112.886 22.1834C113.681 23.5814 114.078 25.136 114.078 26.8488C114.078 30.0979 113.046 32.7724 110.978 34.8677C108.909 36.9662 106.021 38.0139 102.312 38.0139H84.4516V1.37268H100.828C104.289 1.37268 107.108 2.40346 109.282 4.46503C111.455 6.52813 112.541 9.25333 112.541 12.6422" fill="#201F1F"/>
<path d="M139.626 16.7829L135.81 25.6421H143.495L139.626 16.7829ZM146.57 33.6626H132.681L130.563 38.2235H120.438V36.9131L137.453 1.16296H141.904L158.759 36.9131V38.2235H148.743L146.57 33.6626Z" fill="#201F1F"/>
<path d="M4.98099 55.5215C6.05113 55.5215 7.21757 55.8348 8.02056 56.5814L7.70527 56.9655C7.011 56.3525 5.95328 56.0146 4.99187 56.0146C2.82674 56.0146 1.30773 57.6399 1.30773 59.8167C1.30773 62.0073 2.81587 63.7401 5.02914 63.7401C6.07443 63.7401 7.14457 63.3407 7.91184 62.5956L8.23956 62.9566C7.53442 63.631 6.51243 64.2317 5.02914 64.2317C2.47417 64.2317 0.75946 62.2592 0.75946 59.8167C0.75946 57.3741 2.51144 55.5215 4.98099 55.5215Z" fill="#201F1F"/>
<path d="M20.8737 63.7395C23.0264 63.7395 24.6324 62.0313 24.6324 59.8161C24.6324 57.6639 23.0264 56.0155 20.8737 56.0155C18.721 56.0155 17.1166 57.6639 17.1166 59.8161C17.1166 62.0313 18.721 63.7395 20.8737 63.7395ZM20.8737 55.5209C23.3184 55.5209 25.1791 57.3997 25.1791 59.8161C25.1791 62.2955 23.3184 64.2311 20.8737 64.2311C18.429 64.2311 16.5683 62.2955 16.5683 59.8161C16.5683 57.3997 18.429 55.5209 20.8737 55.5209Z" fill="#201F1F"/>
<path d="M37.3383 59.8765C38.4582 59.8765 39.1633 59.0823 39.1633 57.9393C39.1633 57.1943 38.7859 56.5921 38.1662 56.3171C37.9223 56.2081 37.6552 56.1481 36.9733 56.1481H35.0272V59.8765H37.3383ZM34.5038 55.6673H36.9982C37.7887 55.6673 38.1895 55.7503 38.5312 55.9192C39.2363 56.268 39.71 56.9777 39.71 57.9393C39.71 59.1437 39.0049 60.0455 38.0077 60.2605V60.2866C38.0077 60.2866 38.0932 60.3819 38.2019 60.5862L40.1123 64.0872H39.491L37.4719 60.3573H35.0272V64.0872H34.5038V55.6673Z" fill="#201F1F"/>
<path d="M51.9654 60.1173C53.2064 60.1173 54.0326 59.3845 54.0326 58.1202C54.0326 56.8575 53.2064 56.1478 51.9654 56.1478H49.7148V60.1173H51.9654ZM49.1914 55.6669H51.9902C53.4735 55.6669 54.5809 56.5933 54.5809 58.1202C54.5809 59.6487 53.4735 60.5997 51.9902 60.5997H49.7148V64.0868H49.1914V55.6669Z" fill="#201F1F"/>
<path d="M67.3833 63.7395C69.536 63.7395 71.142 62.0313 71.142 59.8161C71.142 57.6639 69.536 56.0155 67.3833 56.0155C65.2306 56.0155 63.6261 57.6639 63.6261 59.8161C63.6261 62.0313 65.2306 63.7395 67.3833 63.7395ZM67.3833 55.5209C69.828 55.5209 71.6887 57.3997 71.6887 59.8161C71.6887 62.2955 69.828 64.2311 67.3833 64.2311C64.9386 64.2311 63.0779 62.2955 63.0779 59.8161C63.0779 57.3997 64.9386 55.5209 67.3833 55.5209Z" fill="#201F1F"/>
<path d="M83.8487 59.8765C84.967 59.8765 85.6721 59.0823 85.6721 57.9393C85.6721 57.1943 85.2962 56.5921 84.675 56.3171C84.4327 56.2081 84.164 56.1481 83.4837 56.1481H81.5375V59.8765H83.8487ZM81.0141 55.6673H83.507C84.2975 55.6673 84.6998 55.7503 85.04 55.9192C85.7451 56.268 86.2204 56.9777 86.2204 57.9393C86.2204 59.1437 85.5137 60.0455 84.5165 60.2605V60.2866C84.5165 60.2866 84.602 60.3819 84.7122 60.5862L86.6211 64.0872H86.0014L83.9822 60.3573H81.5375V64.0872H81.0141V55.6673Z" fill="#201F1F"/>
<path d="M99.8135 60.695L98.5243 57.2785C98.3908 56.9175 98.2075 56.2677 98.2075 56.2677H98.1842C98.1842 56.2677 98.0009 56.9175 97.8673 57.2785L96.5658 60.695H99.8135ZM97.917 55.667H98.4762L101.663 64.0869H101.103L99.9967 61.1758H96.384L95.2891 64.0869H94.7299L97.917 55.667Z" fill="#201F1F"/>
<path d="M111.936 56.1479H108.761V55.667H115.632V56.1479H112.457V64.0869H111.936V56.1479Z" fill="#201F1F"/>
<path d="M124.458 55.6673H124.98V64.0872H124.458V55.6673Z" fill="#201F1F"/>
<path d="M138.609 63.7395C140.762 63.7395 142.366 62.0313 142.366 59.8161C142.366 57.6639 140.762 56.0155 138.609 56.0155C136.456 56.0155 134.85 57.6639 134.85 59.8161C134.85 62.0313 136.456 63.7395 138.609 63.7395ZM138.609 55.5209C141.054 55.5209 142.914 57.3997 142.914 59.8161C142.914 62.2955 141.054 64.2311 138.609 64.2311C136.164 64.2311 134.303 62.2955 134.303 59.8161C134.303 57.3997 136.164 55.5209 138.609 55.5209Z" fill="#201F1F"/>
<path d="M152.239 55.667H152.725L157.579 62.2711C157.859 62.6567 158.272 63.3295 158.272 63.3295H158.297C158.297 63.3295 158.236 62.692 158.236 62.2711V55.667H158.759V64.0869H158.272L153.42 57.4828C153.14 57.0988 152.725 56.4259 152.725 56.4259H152.701C152.701 56.4259 152.761 57.0619 152.761 57.4828V64.0869H152.239V55.667Z" fill="#201F1F"/>
</svg>
