<svg width="80" height="110" viewBox="0 0 80 110" fill="none" xmlns="http://www.w3.org/2000/svg">
<path d="M6.45 109L5.55736 108.549L4.82474 110H6.45V109ZM33.9 109V110H34.5148L34.7923 109.451L33.9 109ZM78.9 20.05L79.7923 20.5014L79.9 20.2885V20.05H78.9ZM78.9 1.74999H79.9V0.749995H78.9V1.74999ZM1.95 1.74999V0.749995H0.95V1.74999H1.95ZM1.95 24.25H0.95V25.25H1.95V24.25ZM50.7 23.8H51.7V22.182L50.2528 22.9056L50.7 23.8ZM50.7 24.1L51.3854 24.8282L51.7 24.5321V24.1H50.7ZM44.4 33.85L43.5092 33.3955L43.5074 33.3992L44.4 33.85ZM6.45 110H33.9V108H6.45V110ZM34.7923 109.451L79.7923 20.5014L78.0077 19.5986L33.0077 108.549L34.7923 109.451ZM79.9 20.05V1.74999H77.9V20.05H79.9ZM78.9 0.749995H1.95V2.74999H78.9V0.749995ZM0.95 1.74999V24.25H2.95V1.74999H0.95ZM1.95 25.25H44.4V23.25H1.95V25.25ZM44.4 25.25C47.1235 25.25 48.7433 25.1367 49.699 25.0173C50.1777 24.9574 50.5001 24.8948 50.7175 24.8405C50.8268 24.8131 50.9128 24.7871 50.9811 24.7632C51.0154 24.7512 51.0459 24.7395 51.0732 24.7281C51.0868 24.7224 51.0998 24.7168 51.1121 24.7112C51.1182 24.7084 51.1242 24.7056 51.1301 24.7028C51.133 24.7014 51.1359 24.7 51.1387 24.6986C51.1402 24.6979 51.1416 24.6972 51.143 24.6965C51.1437 24.6962 51.1448 24.6956 51.1451 24.6955C51.1462 24.6949 51.1472 24.6944 50.7 23.8C50.2528 22.9056 50.2538 22.9051 50.2549 22.9045C50.2552 22.9044 50.2562 22.9039 50.2569 22.9035C50.2583 22.9028 50.2596 22.9022 50.2609 22.9015C50.2636 22.9003 50.2661 22.899 50.2686 22.8978C50.2735 22.8955 50.2782 22.8933 50.2824 22.8914C50.291 22.8875 50.2982 22.8844 50.304 22.882C50.3154 22.8772 50.3213 22.8752 50.3204 22.8755C50.3184 22.8762 50.2919 22.8853 50.2325 22.9002C50.1124 22.9302 49.8723 22.9801 49.451 23.0327C48.6067 23.1383 47.0765 23.25 44.4 23.25V25.25ZM49.7 23.8V24.1H51.7V23.8H49.7ZM50.7 24.1C50.0146 23.3718 50.0143 23.3721 50.014 23.3724C50.0139 23.3725 50.0136 23.3728 50.0134 23.373C50.0129 23.3734 50.0124 23.3739 50.0119 23.3744C50.0109 23.3754 50.0096 23.3765 50.0083 23.3778C50.0055 23.3804 50.0022 23.3836 49.9983 23.3874C49.9904 23.3951 49.98 23.4051 49.9673 23.4177C49.9419 23.4428 49.907 23.4779 49.8629 23.5237C49.7747 23.6152 49.6498 23.7494 49.4907 23.931C49.1726 24.2942 48.718 24.8474 48.1479 25.63C47.0079 27.1952 45.4059 29.6782 43.5092 33.3955L45.2908 34.3045C47.1441 30.6718 48.6921 28.2798 49.7646 26.8075C50.3008 26.0714 50.7181 25.5652 50.9952 25.2487C51.1338 25.0905 51.2374 24.9797 51.3033 24.9113C51.3362 24.8771 51.3598 24.8535 51.3736 24.8398C51.3805 24.833 51.3849 24.8287 51.3869 24.8268C51.3879 24.8258 51.3883 24.8255 51.388 24.8257C51.3879 24.8258 51.3876 24.8261 51.3872 24.8265C51.3869 24.8267 51.3867 24.827 51.3864 24.8272C51.3862 24.8274 51.386 24.8276 51.3859 24.8277C51.3856 24.8279 51.3854 24.8282 50.7 24.1ZM43.5074 33.3992L5.55736 108.549L7.34264 109.451L45.2926 34.3008L43.5074 33.3992Z" fill="#B80B12"/>
</svg>
